<?xml version="1.0" standalone="no"?>
<!DOCTYPE svg PUBLIC "-//W3C//DTD SVG 20010904//EN"
 "http://www.w3.org/TR/2001/REC-SVG-20010904/DTD/svg10.dtd">
<svg version="1.0" xmlns="http://www.w3.org/2000/svg"
 width="1000.000000pt" height="1000.000000pt" viewBox="0 0 1000.000000 1000.000000"
 preserveAspectRatio="xMidYMid meet">
<metadata>
Created by potrace 1.11, written by Peter Selinger 2001-2013
</metadata>
<g transform="translate(0.000000,1000.000000) scale(0.100000,-0.100000)"
fill="#000000" stroke="none">
<path d="M0 4995 l0 -4995 4523 0 c4297 0 4524 1 4525 18 1 9 2 28 2 42 0 20
2 22 11 10 9 -13 10 -13 6 0 -2 8 -13 14 -23 12 -18 -2 -18 -2 -1 11 18 15 24
33 7 22 -6 -4 -7 6 -3 26 5 25 3 30 -7 24 -9 -6 -8 -1 2 14 9 12 14 32 11 44
-4 18 -3 19 7 7 10 -13 11 -13 7 0 -2 8 -13 14 -23 12 -18 -2 -18 -2 -1 11 18
15 24 33 7 22 -6 -4 -7 6 -3 26 5 25 3 30 -7 24 -9 -6 -8 -1 2 14 9 12 14 32
11 44 -4 18 -3 19 7 7 10 -13 11 -13 7 0 -2 8 -13 14 -23 12 -18 -2 -18 -2 -1
11 18 15 24 33 7 22 -6 -4 -7 6 -3 26 5 25 3 30 -7 24 -9 -6 -8 -1 2 14 9 12
14 32 11 44 -4 18 -3 19 7 7 10 -13 11 -13 7 0 -2 8 -13 14 -23 12 -18 -2 -18
-2 -1 11 18 15 24 33 7 22 -6 -4 -7 6 -3 26 5 25 3 30 -7 24 -9 -6 -8 -1 2 14
9 12 14 32 11 44 -4 18 -3 19 7 7 10 -13 11 -13 7 0 -2 8 -13 14 -23 12 -18
-2 -18 -2 -2 11 19 15 25 33 8 22 -6 -4 -7 6 -3 26 5 25 3 30 -7 24 -9 -6 -8
-1 2 14 9 12 14 32 11 44 -4 18 -3 19 7 7 10 -13 11 -13 7 0 -2 8 -13 14 -23
12 -18 -2 -18 -2 -1 11 18 15 24 33 7 22 -6 -4 -7 6 -3 26 5 25 3 30 -7 24 -9
-6 -8 -1 2 14 9 12 14 32 11 44 -4 18 -3 19 7 7 10 -13 11 -13 7 0 -2 8 -13
14 -23 12 -18 -2 -18 -2 -1 11 18 15 24 33 7 22 -6 -4 -7 6 -3 26 5 25 3 30
-7 24 -9 -6 -8 -1 2 14 9 12 14 32 11 44 -4 18 -3 19 7 7 10 -13 11 -13 7 0
-2 8 -13 14 -23 12 -18 -2 -18 -2 -2 11 19 15 25 33 8 22 -6 -4 -7 6 -3 26 5
25 3 30 -7 24 -9 -6 -8 -1 2 14 9 12 14 32 11 44 -4 18 -3 19 7 7 10 -13 11
-13 7 0 -2 8 -13 14 -23 12 -18 -2 -18 -2 -1 11 18 15 24 33 7 22 -6 -4 -7 6
-3 26 5 25 3 30 -7 24 -9 -6 -8 -1 2 14 9 12 14 32 11 44 -4 18 -3 19 7 7 10
-13 11 -13 7 0 -2 8 -13 14 -23 12 -18 -2 -18 -2 -1 11 18 15 24 33 7 22 -6
-4 -7 6 -3 26 5 25 3 30 -7 24 -9 -6 -8 -1 2 14 9 12 14 32 11 44 -4 18 -3 19
7 7 10 -13 11 -13 7 0 -2 8 -13 14 -23 12 -18 -2 -18 -2 -1 11 18 15 24 33 7
22 -6 -4 -7 6 -3 26 5 25 3 30 -7 24 -9 -6 -8 -1 2 14 9 12 14 32 11 44 -4 18
-3 19 7 7 10 -13 11 -13 7 0 -2 8 -13 14 -23 12 -18 -2 -18 -2 -1 11 18 15 24
33 7 22 -6 -4 -7 6 -3 26 5 25 3 30 -7 24 -9 -6 -8 -1 2 14 9 12 14 32 11 44
-4 18 -3 19 7 7 10 -13 11 -13 7 0 -2 8 -13 14 -23 12 -18 -2 -18 -2 -1 11 18
15 24 33 7 22 -6 -4 -7 6 -3 26 5 25 3 30 -7 24 -9 -6 -8 -1 2 14 9 12 14 32
11 44 -4 18 -3 19 7 7 10 -13 11 -13 7 0 -2 8 -13 14 -23 12 -18 -2 -18 -2 -1
11 18 15 24 33 7 22 -6 -4 -7 6 -3 26 5 25 3 30 -7 24 -9 -6 -8 -1 2 14 9 12
14 32 11 44 -4 18 -3 19 7 7 10 -13 11 -13 7 0 -2 8 -13 14 -23 12 -18 -2 -18
-2 -1 11 18 15 24 33 7 22 -6 -4 -7 6 -3 26 5 25 3 30 -7 24 -9 -6 -8 -1 2 14
9 12 14 32 11 44 -4 18 -3 19 7 7 10 -13 11 -13 7 0 -2 8 -13 14 -23 12 -18
-2 -18 -2 -1 11 18 15 24 33 7 22 -6 -4 -7 6 -3 26 5 25 3 30 -7 24 -9 -6 -8
-1 2 14 9 12 14 32 11 44 -4 18 -3 19 7 7 10 -13 11 -13 7 0 -2 8 -13 14 -23
12 -18 -2 -18 -2 -1 11 18 15 24 33 7 22 -6 -4 -7 6 -3 26 5 25 3 30 -7 24 -9
-6 -8 -1 2 14 9 12 14 32 11 44 -4 18 -3 19 7 7 10 -13 11 -13 7 0 -2 8 -13
14 -23 12 -18 -2 -18 -2 -1 11 18 15 24 33 7 22 -6 -4 -7 6 -3 26 5 25 3 30
-7 24 -9 -6 -8 -1 2 14 9 12 14 32 11 44 -4 18 -3 19 7 7 10 -13 11 -13 7 0
-2 8 -13 14 -23 12 -18 -2 -18 -2 -1 11 18 15 24 33 7 22 -6 -4 -7 6 -3 26 5
25 3 30 -7 24 -9 -6 -8 -1 2 14 9 12 14 32 11 44 -4 18 -3 19 7 7 10 -13 11
-13 7 0 -2 8 -13 14 -23 12 -18 -2 -18 -2 -1 11 18 15 24 33 7 22 -6 -4 -7 6
-3 26 5 25 3 30 -7 24 -9 -6 -8 -1 2 14 9 12 14 32 11 44 -4 18 -3 19 7 7 10
-13 11 -13 7 0 -2 8 -13 14 -23 12 -18 -2 -18 -2 -1 11 18 15 24 33 7 22 -6
-4 -7 6 -3 26 5 25 3 30 -7 24 -9 -6 -8 -1 2 14 9 12 14 32 11 44 -4 18 -3 19
7 7 10 -13 11 -13 7 0 -2 8 -13 14 -23 12 -18 -2 -18 -2 -1 11 18 15 24 33 7
22 -6 -4 -7 6 -3 26 5 25 3 30 -7 24 -9 -6 -8 -1 2 14 9 12 14 32 11 44 -4 18
-3 19 7 7 10 -13 11 -13 7 0 -2 8 -13 14 -23 12 -18 -2 -18 -2 -2 11 19 15 25
33 8 22 -6 -4 -7 6 -3 26 5 25 3 30 -7 24 -9 -6 -8 -1 2 14 9 12 14 32 11 44
-4 18 -3 19 7 7 10 -13 11 -13 7 0 -2 8 -13 14 -23 12 -18 -2 -18 -2 -2 11 19
15 25 33 8 22 -6 -4 -7 6 -3 26 5 25 3 30 -7 24 -9 -6 -8 -1 2 14 9 12 14 32
11 44 -4 18 -3 19 7 7 10 -13 11 -13 7 0 -2 8 -13 14 -23 12 -18 -2 -18 -2 -1
11 18 15 24 33 7 22 -6 -4 -7 6 -3 26 5 25 3 30 -7 24 -9 -6 -8 -1 2 14 9 12
14 32 11 44 -4 18 -3 19 7 7 10 -13 11 -13 7 0 -2 8 -13 14 -23 12 -18 -2 -18
-2 -1 11 18 15 24 33 7 22 -6 -4 -7 6 -3 26 5 25 3 30 -7 24 -9 -6 -8 -1 2 14
9 12 14 32 11 44 -4 18 -3 19 7 7 10 -13 11 -13 7 0 -2 8 -13 14 -23 12 -18
-2 -18 -2 -1 11 18 15 24 33 7 22 -6 -4 -7 6 -3 26 5 25 3 30 -7 24 -9 -6 -8
-1 2 14 9 12 14 32 11 44 -4 18 -3 19 7 7 10 -13 11 -13 7 0 -2 8 -13 14 -23
12 -18 -2 -18 -2 -1 11 18 15 24 33 7 22 -6 -4 -7 6 -3 26 5 25 3 30 -7 24 -9
-6 -8 -1 2 14 9 12 14 32 11 44 -4 18 -3 19 7 7 10 -13 11 -13 7 0 -2 8 -13
14 -23 12 -18 -2 -18 -2 -2 11 19 15 25 33 8 22 -6 -4 -7 6 -3 26 5 25 3 30
-7 24 -9 -6 -8 -1 2 14 9 12 14 32 11 44 -4 18 -3 19 7 7 10 -13 11 -13 7 0
-2 8 -13 14 -23 12 -18 -2 -18 -2 -1 11 18 15 24 33 7 22 -6 -4 -7 6 -3 26 5
25 3 30 -7 24 -9 -6 -8 -1 2 14 9 12 14 32 11 44 -4 18 -3 19 7 7 10 -13 11
-13 7 0 -2 8 -13 14 -23 12 -18 -2 -18 -2 -2 11 19 15 25 33 8 22 -6 -4 -7 6
-3 26 5 25 3 30 -7 24 -9 -6 -8 -1 2 14 9 12 14 32 11 44 -4 18 -3 19 7 7 10
-13 11 -13 7 0 -2 8 -13 14 -23 12 -18 -2 -18 -2 -2 11 19 15 25 33 8 22 -6
-4 -7 6 -3 26 5 25 3 30 -7 24 -9 -6 -8 -1 2 14 9 12 14 32 11 44 -4 18 -3 19
7 7 10 -13 11 -13 7 0 -2 8 -13 14 -23 12 -18 -2 -18 -2 -1 11 18 15 24 33 7
22 -6 -4 -7 6 -3 26 5 25 3 30 -7 24 -9 -6 -8 -1 2 14 9 12 14 32 11 44 -4 18
-3 19 7 7 10 -13 11 -13 7 0 -2 8 -13 14 -23 12 -18 -2 -18 -2 -1 11 18 15 24
33 7 22 -6 -4 -7 6 -3 26 5 25 3 30 -7 24 -9 -6 -8 -1 2 14 9 12 14 32 11 44
-4 18 -3 19 7 7 10 -13 11 -13 7 0 -2 8 -13 14 -23 12 -18 -2 -18 -2 -2 11 19
15 25 33 8 22 -6 -4 -7 6 -3 26 5 25 3 30 -7 24 -9 -6 -8 -1 2 14 9 12 14 32
11 44 -4 18 -3 19 7 7 10 -13 11 -13 7 0 -2 8 -13 14 -23 12 -18 -2 -18 -2 -2
11 19 15 25 33 8 22 -6 -4 -7 6 -3 26 5 25 3 30 -7 24 -9 -6 -8 -1 2 14 9 12
14 32 11 44 -4 18 -3 19 7 7 10 -13 11 -13 7 0 -2 8 -13 14 -23 12 -18 -2 -18
-2 -2 11 19 15 25 33 8 22 -6 -4 -7 6 -3 26 5 25 3 30 -7 24 -9 -6 -8 -1 2 14
9 12 14 32 11 44 -4 18 -3 19 7 7 10 -13 11 -13 7 0 -2 8 -13 14 -23 12 -18
-2 -18 -2 -2 11 19 15 25 33 8 22 -6 -4 -7 6 -3 26 5 25 3 30 -7 24 -9 -6 -8
-1 2 14 9 12 14 32 11 44 -4 18 -3 19 7 7 10 -13 11 -13 7 0 -2 8 -13 14 -23
12 -18 -2 -18 -2 -1 11 18 15 24 33 7 22 -6 -4 -7 6 -3 26 5 25 3 30 -7 24 -9
-6 -8 -1 2 14 9 12 14 32 11 44 -4 18 -3 19 7 7 10 -13 11 -13 7 0 -2 8 -13
14 -23 12 -18 -2 -18 -2 -2 11 19 15 25 33 8 22 -6 -4 -7 6 -3 26 5 25 3 30
-7 24 -9 -6 -8 -1 2 14 9 12 14 32 11 44 -4 18 -3 19 7 7 10 -13 11 -13 7 0
-2 8 -13 14 -23 12 -18 -2 -18 -2 -1 11 18 15 24 33 7 22 -6 -4 -7 6 -3 26 5
25 3 30 -7 24 -9 -6 -8 -1 2 14 9 12 14 32 11 44 -4 18 -3 19 7 7 10 -13 11
-13 7 0 -2 8 -13 14 -23 12 -18 -2 -18 -2 -2 11 19 15 25 33 8 22 -6 -4 -7 6
-3 26 5 25 3 30 -7 24 -9 -6 -8 -1 2 14 9 12 14 32 11 44 -4 18 -3 19 7 7 10
-13 11 -13 7 0 -2 8 -13 14 -23 12 -18 -2 -18 -2 -1 11 18 15 24 33 7 22 -6
-4 -7 6 -3 26 5 25 3 30 -7 24 -9 -6 -8 -1 2 14 9 12 14 32 11 44 -4 18 -3 19
7 7 10 -13 11 -13 7 0 -2 8 -13 14 -23 12 -18 -2 -18 -2 -1 11 18 15 24 33 7
22 -6 -4 -7 6 -3 26 5 25 3 30 -7 24 -9 -6 -8 -1 2 14 9 12 14 32 11 44 -4 18
-3 19 7 7 10 -13 11 -13 7 0 -2 8 -13 14 -23 12 -18 -2 -18 -2 -1 11 18 15 24
33 7 22 -6 -4 -7 6 -3 26 5 25 3 30 -7 24 -9 -6 -8 -1 2 14 9 12 14 32 11 44
-4 18 -3 19 7 7 10 -13 11 -13 7 0 -2 8 -13 14 -23 12 -18 -2 -18 -2 -1 11 18
15 24 33 7 22 -6 -4 -7 6 -3 26 5 25 3 30 -7 24 -9 -6 -8 -1 2 14 9 12 14 32
11 44 -4 18 -3 19 7 7 10 -13 11 -13 7 0 -2 8 -13 14 -23 12 -18 -2 -18 -2 -1
11 18 15 24 33 7 22 -6 -4 -7 6 -3 26 5 25 3 30 -7 24 -9 -6 -8 -1 2 14 9 12
14 32 11 44 -4 18 -3 19 7 7 10 -13 11 -13 7 0 -2 8 -13 14 -23 12 -18 -2 -18
-2 -1 11 18 15 24 33 7 22 -6 -4 -7 6 -3 26 5 25 3 30 -7 24 -9 -6 -8 -1 2 14
9 12 14 32 11 44 -4 18 -3 19 7 7 10 -13 11 -13 7 0 -2 8 -13 14 -23 12 -18
-2 -18 -2 -1 11 18 15 24 33 7 22 -6 -4 -7 6 -3 26 5 25 3 30 -7 24 -9 -6 -8
-1 2 14 9 12 14 32 11 44 -4 18 -3 19 7 7 10 -13 11 -13 7 0 -2 8 -13 14 -23
12 -18 -2 -18 -2 -2 11 19 15 25 33 8 22 -6 -4 -7 6 -3 26 5 25 3 30 -7 24 -9
-6 -8 -1 2 14 9 12 14 32 11 44 -4 18 -3 19 7 7 10 -13 11 -13 7 0 -2 8 -13
14 -23 12 -18 -2 -18 -2 -1 11 18 15 24 33 7 22 -6 -4 -7 6 -3 26 5 25 3 30
-7 24 -9 -6 -8 -1 2 14 9 12 14 32 11 44 -4 18 -3 19 7 7 10 -13 11 -13 7 0
-2 8 -13 14 -23 12 -18 -2 -18 -2 -1 11 18 15 24 33 7 22 -6 -4 -7 6 -3 26 5
25 3 30 -7 24 -9 -6 -8 -1 2 14 9 12 14 32 11 44 -4 18 -3 19 7 7 10 -13 11
-13 7 0 -2 8 -13 14 -23 12 -18 -2 -18 -2 -1 11 18 15 24 33 7 22 -6 -4 -7 6
-3 26 5 25 3 30 -7 24 -9 -6 -8 -1 2 14 9 12 14 32 11 44 -4 18 -3 19 7 7 10
-13 11 -13 7 0 -2 8 -13 14 -23 12 -18 -2 -18 -2 -1 11 18 15 24 33 7 22 -6
-4 -7 6 -3 26 5 25 3 30 -7 24 -9 -6 -8 -1 2 14 9 12 14 32 11 44 -4 18 -3 19
7 7 10 -13 11 -13 7 0 -2 8 -13 14 -23 12 -18 -2 -18 -2 -1 11 18 15 24 33 7
22 -6 -4 -7 6 -3 26 5 25 3 30 -7 24 -9 -6 -8 -1 2 14 9 12 14 32 11 44 -4 18
-3 19 7 7 10 -13 11 -13 7 0 -2 8 -13 14 -23 12 -18 -2 -18 -2 -1 11 18 15 24
33 7 22 -6 -4 -7 6 -3 26 5 25 3 30 -7 24 -9 -6 -8 -1 2 14 9 12 14 32 11 44
-4 18 -3 19 7 7 10 -13 11 -13 7 0 -2 8 -13 14 -23 12 -18 -2 -18 -2 -1 11 18
15 24 33 7 22 -6 -4 -7 6 -3 26 5 25 3 30 -7 24 -9 -6 -8 -1 2 14 9 12 14 32
11 44 -4 18 -3 19 7 7 10 -13 11 -13 7 0 -2 8 -13 14 -23 12 -18 -2 -18 -2 -1
11 18 15 24 33 7 22 -6 -4 -7 6 -3 26 5 25 3 30 -7 24 -9 -6 -8 -1 2 14 9 12
14 32 11 44 -4 18 -3 19 7 7 10 -13 11 -13 7 0 -2 8 -13 14 -23 12 -18 -2 -18
-2 -1 11 18 15 24 33 7 22 -6 -4 -7 6 -3 26 5 25 3 30 -7 24 -9 -6 -8 -1 2 14
9 12 14 32 11 44 -4 18 -3 19 7 7 10 -13 11 -13 7 0 -2 8 -13 14 -23 12 -18
-2 -18 -2 -1 11 18 15 24 33 7 22 -6 -4 -7 6 -3 26 5 25 3 30 -7 24 -9 -6 -8
-1 2 14 9 12 14 32 11 44 -4 18 -3 19 7 7 10 -13 11 -13 7 0 -2 8 -13 14 -23
12 -18 -2 -18 -2 -1 11 18 15 24 33 7 22 -6 -4 -7 6 -3 26 5 25 3 30 -7 24 -9
-6 -8 -1 2 14 9 12 14 32 11 44 -4 18 -3 19 7 7 10 -13 11 -13 7 0 -2 8 -13
14 -23 12 -18 -2 -18 -2 -1 11 18 15 24 33 7 22 -6 -4 -7 6 -3 26 5 25 3 30
-7 24 -9 -6 -8 -1 3 14 8 13 13 30 10 37 -4 12 -691 14 -4529 14 l-4524 0 0
-4995z m4350 1945 l0 -650 1295 0 1295 0 -2 -1937 -3 -1937 -260 2 c-427 4
-2334 11 -3002 11 l-623 1 0 2580 0 2580 650 0 650 0 0 -650z"/>
<path d="M4350 4360 l0 -650 640 0 640 0 0 650 0 650 -640 0 -640 0 0 -650z"/>
</g>
</svg>
