<svg xmlns="http://www.w3.org/2000/svg" viewBox="0 0 50 50">
  <path fill="#FFF" fill-rule="evenodd" d="M0,0 L50,0 L50,50 L0,50 L0,0 Z M25.5,7.04026803 C15.2831191,7.04026803 7,15.323385 7,25.5402677 C7,33.3792555 11.8786513,40.072359 18.7631137,42.7650485 L18.7631137,41.1352577 C12.7321424,38.5273722 8.51160047,32.530062 8.51160047,25.5402677 C8.51160047,16.1562676 16.1160017,8.54564787 25.5,8.54564787 C34.8840017,8.54564787 42.4883989,16.1562676 42.4883989,25.540268 C42.4883989,32.530062 38.2678583,38.5273722 32.236886,41.1352577 L32.236886,42.7650485 C39.1241986,40.0737484 44,33.381304 44,25.5402677 C44,15.323385 35.716884,7.04026803 25.5,7.04026803 Z M25.4937794,10.710409 C18.5252049,10.710409 12.8784465,16.363388 12.8784465,23.3319625 C12.8784465,28.042895 15.4605837,32.1447107 19.2856422,34.3112833 L19.2856422,32.9614178 C16.1284569,30.9212533 14.0354742,27.3720421 14.0354742,23.3319625 C14.0354742,17.0019559 19.1637725,11.8674366 25.4937794,11.8674366 C31.8237872,11.8674366 36.9583049,17.0019559 36.9583049,23.3319625 C36.9583049,27.3720421 34.8609353,30.9212533 31.7019153,32.9614178 L31.7019153,34.3112833 C35.5288192,32.1447107 38.1153319,28.042895 38.1153319,23.3319625 C38.1153319,16.363388 32.4623548,10.710409 25.4937794,10.710409 Z M25.5,14.7973291 C21.3355328,14.7973291 17.9606589,18.1722027 17.9606589,22.3366699 C17.9606589,24.4585958 18.8394447,26.3724141 20.249832,27.7423526 L20.249832,25.9694878 C19.5356518,24.937654 19.1176865,23.6861216 19.1176865,22.3366699 C19.1176865,18.810717 21.9740468,15.9543567 25.5,15.9543567 C29.0259532,15.9543567 31.8885341,18.810717 31.8885341,22.3366699 C31.8885341,23.6861216 31.4716921,24.937654 30.7563896,25.9694878 L30.7563896,27.736132 C32.163071,26.3666094 33.039342,24.4554228 33.039342,22.3366699 C33.039342,18.1722027 29.6644672,14.7973291 25.5,14.7973291 Z M25.5,18.7287345 C23.5079977,18.7287345 21.8920646,20.3446676 21.8920646,22.3366699 C21.8920646,24.3286725 23.5079977,25.9383849 25.5,25.9383849 C27.4920023,25.9383849 29.1079354,24.3286725 29.1079354,22.3366699 C29.1079354,20.3446676 27.4920023,18.7287345 25.5,18.7287345 Z M25.5,26.8714716 C21.174996,26.8714716 21.120713,28.4639396 21.120713,28.4639396 C21.120713,28.4639396 21.1040578,33.1130528 21.4939474,35.5429578 C21.8838395,37.9728631 23.5094148,42.9516673 23.5094148,42.9516673 L27.4905852,42.9516673 C27.4905852,42.9516673 29.1167796,37.954303 29.5060526,35.5242962 C29.8953274,33.0942873 29.879287,28.4639396 29.879287,28.4639396 C29.879287,28.4639396 29.825004,26.8714716 25.5,26.8714716 Z"/>
</svg>
