<svg xmlns="http://www.w3.org/2000/svg" viewBox="0 0 50 50">
  <path fill="#FFF" fill-rule="evenodd" d="M0,0 L50,0 L50,50 L0,50 L0,0 Z M6,31.7792412 C6,32.2630791 6.17540705,32.6289133 6.52614681,32.8768923 C6.87692374,33.1248341 7.25186654,33.2125005 7.65101239,33.1399657 C8.0259552,33.0673937 8.2890286,32.9343327 8.44026978,32.7408198 C8.59143661,32.547307 8.6670572,32.226756 8.6670572,31.7792412 L8.6670572,26.5177731 C8.6670572,26.1427931 8.5370448,25.8252908 8.27698284,25.565266 C8.01695806,25.305204 7.69945567,25.1751916 7.32447569,25.1751916 C6.96161582,25.1751916 6.6501735,25.305204 6.39011153,25.565266 C6.13004957,25.8252908 6,26.1427931 6,26.5177731 L6,31.7792412 Z M10.1728885,34.0289724 C10.1728885,34.3797865 10.296878,34.6428227 10.5448198,34.8182297 C10.7927989,34.9936368 11.1103012,35.0813031 11.497327,35.0813031 C11.8964728,35.0813031 12.2199981,34.9935996 12.4679771,34.8182297 C12.715919,34.6428599 12.8399085,34.3797865 12.8399085,34.0289724 L12.8399085,21.7643089 C12.8399085,21.401449 12.7098589,21.0899695 12.4498341,20.8299447 C12.1897722,20.5699199 11.8722698,20.4398704 11.497327,20.4398704 C11.1344671,20.4398704 10.8229876,20.5699199 10.5629628,20.8299447 C10.3029009,21.0900067 10.1728885,21.401449 10.1728885,21.7643089 L10.1728885,34.0289724 Z M14.3276339,34.6095481 C14.3276339,34.9603251 14.4546349,35.2233985 14.7086368,35.3988055 C14.9626387,35.5741754 15.2892126,35.6618789 15.6883956,35.6618789 C16.0754214,35.6618789 16.3929237,35.5741754 16.6408656,35.3988055 C16.8888446,35.2233985 17.0128341,34.9603251 17.0128341,34.6095481 L17.0128341,23.4153213 C17.0128341,23.0403785 16.8827846,22.7198275 16.6227598,22.4537426 C16.3626978,22.1876578 16.0512555,22.0546339 15.6883956,22.0546339 C15.3134156,22.0546339 14.9929018,22.1876578 14.726817,22.4537426 C14.4607321,22.7198275 14.3276711,23.0403785 14.3276711,23.4153213 L14.3276711,34.6095481 L14.3276339,34.6095481 Z M18.5005224,34.6639771 C18.5005224,35.329245 18.9480372,35.6618789 19.8431039,35.6618789 C20.7381335,35.6618789 21.1856482,35.329245 21.1856482,34.6639771 L21.1856482,16.5209838 C21.1856482,15.5049762 20.8772173,14.9304604 20.2603556,14.7973994 C19.8612097,14.7006244 19.4680867,14.8155424 19.081061,15.1421163 C18.6939981,15.4686902 18.5004852,15.9282879 18.5004852,16.5209838 L18.5004852,34.6639771 L18.5005224,34.6639771 Z M22.74602,35.1901239 C22.74602,35.2626959 22.773123,35.3474623 22.827552,35.4442002 C22.8819809,35.540938 22.9636244,35.6074871 23.0725195,35.6437731 L38.8569237,35.6619161 C40.5381992,35.6619161 41.9805672,35.0631973 43.1840276,33.8657598 C44.3875253,32.6683222 44.9892927,31.2229428 44.9892927,29.5295844 C44.9892927,27.8483089 44.3875253,26.4089895 43.1840276,25.2115148 C41.9805672,24.0140772 40.5321392,23.4153584 38.8387807,23.4153584 C38.0042031,23.4153584 37.2180315,23.5725853 36.4802288,23.8870763 C36.3230019,22.0727398 35.7514976,20.412693 34.7657159,18.9067874 C33.7799714,17.400919 32.4887703,16.2125529 30.8921868,15.3416892 C29.2956406,14.4708255 27.5720191,14.0353937 25.7214709,14.0353937 C24.9231792,14.0353937 24.1188275,14.1321687 23.3084528,14.3256816 C22.9334728,14.4466597 22.74602,14.8216025 22.74602,15.4505472 L22.74602,35.1901239 Z"/>
</svg>
