<svg xmlns="http://www.w3.org/2000/svg" viewBox="0 0 50 50">
  <path fill="#FFF" fill-rule="evenodd" d="M0,0 L50,0 L50,50 L0,50 L0,0 Z M15.6666667,39 C18.2439955,39 20.3333333,36.9106622 20.3333333,34.3333333 C20.3333333,31.7560045 18.2439955,29.6666667 15.6666667,29.6666667 C13.0893378,29.6666667 11,31.7560045 11,34.3333333 C11,36.9106622 13.0893378,39 15.6666667,39 Z M11,25 C18.7319865,25 25,31.2680135 25,39 L29.6666667,39 C29.6666667,28.6906847 21.3093153,20.3333333 11,20.3333333 L11,25 Z M11,15.6666667 C17.1883848,15.6666667 23.1233094,18.1249929 27.4991582,22.5008418 C31.8750071,26.8766906 34.3333333,32.8116152 34.3333333,39 L39,39 C39,23.536027 26.463973,11 11,11 L11,15.6666667 Z"/>
</svg>
